<svg width="564px" height="209px" viewBox="0 0 564 209" version="1.1" xmlns="http://www.w3.org/2000/svg" xmlns:xlink="http://www.w3.org/1999/xlink">
    <g id="Page-1" stroke="none" stroke-width="1" fill="none" fill-rule="evenodd">
        <g id="logo" fill="#FFFFFF" fill-rule="nonzero">
            <path d="M173.3701,166.8255 L173.3701,97.5645 C173.3701,74.6315 159.6701,69.8185 148.1771,69.8185 C133.1511,69.8185 117.9891,79.3925 117.9891,100.7835 L117.9891,166.8255 L86.6851,166.8255 L86.6851,97.5645 C86.6851,79.6715 77.7771,69.8185 61.6021,69.8185 C43.7631,69.8185 31.3041,82.5515 31.3041,100.7835 L31.3041,166.8255 L0.0001,166.8255 L0.0001,43.6195 L31.3041,43.6195 L31.3041,59.6245 C39.6821,47.9535 53.6141,41.3995 70.5931,41.3995 C90.1891,41.3995 103.2111,49.8365 110.2681,67.1585 C117.1091,54.5535 130.5051,41.3995 156.6121,41.3995 C185.8091,41.3995 204.6741,58.6535 204.6741,85.3545 L204.6741,166.8255 L173.3701,166.8255 Z" id="Fill-1"></path>
            <path d="M237.5541,208.0037 C230.6191,208.0037 226.0421,208.4517 216.9131,206.3257 L215.1751,205.9207 L215.0631,177.3997 L217.2101,177.8527 C223.4161,179.1587 228.6091,180.0287 233.7801,180.0287 C246.1961,180.0287 254.6741,174.5527 259.6731,163.2947 L207.1151,43.6197 L241.4131,43.6197 L276.5851,132.3747 L309.8971,43.6197 L343.9391,43.6197 L289.0011,175.0607 C283.6271,187.3637 269.7991,208.0037 237.5541,208.0037" id="Fill-3"></path>
            <path d="M353.6152,43.6195 L353.6152,16.5775 L384.9192,7.7965 L384.9192,43.6195 L422.6572,43.6195 L422.6572,71.9275 L384.9192,71.9275 L384.9192,123.8695 C384.9192,132.5735 387.3532,140.6265 405.0072,140.6265 C409.8772,140.6265 415.4492,139.9865 422.0402,138.6685 L424.2502,138.2265 L426.3382,164.8495 L424.6402,165.2245 C414.4982,167.4655 405.0922,168.6015 396.6822,168.6015 C353.6152,168.6015 353.6152,139.1105 353.6152,129.4185 L353.6152,71.9275" id="Fill-6"></path>
            <path d="M532.5453,166.8255 L532.5453,99.0075 C532.5453,79.9115 522.7203,69.8185 504.1333,69.8185 C486.7323,69.8185 469.1733,80.1475 469.1733,103.2245 L469.1733,166.8255 L437.8693,166.8255 L437.8693,-0.0005 L469.1733,-0.0005 L469.1733,60.3255 C478.5173,47.7595 492.8573,41.3995 511.9023,41.3995 C543.9443,41.3995 563.8493,59.3905 563.8493,88.3515 L563.8493,166.8255 L532.5453,166.8255 Z" id="Fill-8"></path>
        </g>
    </g>
</svg>